<mxfile host="app.diagrams.net" agent="Mozilla/5.0 (Windows NT 10.0; Win64; x64; rv:132.0) Gecko/20100101 Firefox/132.0" version="24.7.17">
  <diagram name="Seite-1" id="pQpz4FUCseCprjTR7C_j">
    <mxGraphModel dx="1229" dy="653" grid="1" gridSize="10" guides="1" tooltips="1" connect="1" arrows="1" fold="1" page="1" pageScale="1" pageWidth="827" pageHeight="1169" math="0" shadow="0">
      <root>
        <mxCell id="0" />
        <mxCell id="1" parent="0" />
        <mxCell id="KfhWNn-9DuDS1CDlxOlw-2" value="Start" style="ellipse;fillColor=strokeColor;html=1;verticalAlign=top;align=center;spacingLeft=0;labelPosition=center;verticalLabelPosition=bottom;" parent="1" vertex="1">
          <mxGeometry x="110" y="135" width="30" height="30" as="geometry" />
        </mxCell>
        <mxCell id="KfhWNn-9DuDS1CDlxOlw-3" value="Ende" style="ellipse;html=1;shape=endState;fillColor=strokeColor;labelPosition=center;verticalLabelPosition=bottom;align=center;verticalAlign=top;" parent="1" vertex="1">
          <mxGeometry x="770" y="135" width="30" height="30" as="geometry" />
        </mxCell>
        <mxCell id="KfhWNn-9DuDS1CDlxOlw-4" value="Fahrkarte auswÃ¤hlen" style="rounded=1;whiteSpace=wrap;html=1;fontStyle=1" parent="1" vertex="1">
          <mxGeometry x="200" y="120" width="100" height="60" as="geometry" />
        </mxCell>
        <mxCell id="KfhWNn-9DuDS1CDlxOlw-6" value="Fahrkarte ausgeben" style="rounded=1;whiteSpace=wrap;html=1;fontStyle=1" parent="1" vertex="1">
          <mxGeometry x="610" y="120" width="100" height="60" as="geometry" />
        </mxCell>
        <mxCell id="KfhWNn-9DuDS1CDlxOlw-7" value="" style="endArrow=openThin;html=1;rounded=0;endFill=0;endSize=12;" parent="1" source="KfhWNn-9DuDS1CDlxOlw-2" target="KfhWNn-9DuDS1CDlxOlw-4" edge="1">
          <mxGeometry width="50" height="50" relative="1" as="geometry">
            <mxPoint x="99" y="300" as="sourcePoint" />
            <mxPoint x="159" y="300" as="targetPoint" />
          </mxGeometry>
        </mxCell>
        <mxCell id="KfhWNn-9DuDS1CDlxOlw-8" value="" style="endArrow=openThin;html=1;rounded=0;endFill=0;endSize=12;" parent="1" source="KfhWNn-9DuDS1CDlxOlw-11" target="KfhWNn-9DuDS1CDlxOlw-6" edge="1">
          <mxGeometry width="50" height="50" relative="1" as="geometry">
            <mxPoint x="580" y="230" as="sourcePoint" />
            <mxPoint x="259" y="310" as="targetPoint" />
          </mxGeometry>
        </mxCell>
        <mxCell id="KfhWNn-9DuDS1CDlxOlw-9" value="" style="endArrow=openThin;html=1;rounded=0;endFill=0;endSize=12;" parent="1" source="KfhWNn-9DuDS1CDlxOlw-6" target="KfhWNn-9DuDS1CDlxOlw-3" edge="1">
          <mxGeometry width="50" height="50" relative="1" as="geometry">
            <mxPoint x="209" y="320" as="sourcePoint" />
            <mxPoint x="269" y="320" as="targetPoint" />
          </mxGeometry>
        </mxCell>
        <mxCell id="KfhWNn-9DuDS1CDlxOlw-10" value="" style="endArrow=openThin;html=1;rounded=0;endFill=0;endSize=12;" parent="1" source="KfhWNn-9DuDS1CDlxOlw-4" target="KfhWNn-9DuDS1CDlxOlw-11" edge="1">
          <mxGeometry width="50" height="50" relative="1" as="geometry">
            <mxPoint x="129" y="330" as="sourcePoint" />
            <mxPoint x="330" y="240" as="targetPoint" />
          </mxGeometry>
        </mxCell>
        <mxCell id="KfhWNn-9DuDS1CDlxOlw-11" value="Zahlung abwickeln" style="shape=mxgraph.uml25.behaviorAction;html=1;rounded=1;absoluteArcSize=1;arcSize=10;align=left;spacingLeft=5;whiteSpace=wrap;fontStyle=1" parent="1" vertex="1">
          <mxGeometry x="360" y="120" width="190" height="60" as="geometry" />
        </mxCell>
        <mxCell id="Nc_kqCRYjrkh7HR8rWNE-2" value="" style="rounded=0;whiteSpace=wrap;html=1;fillColor=none;strokeColor=none;" vertex="1" parent="1">
          <mxGeometry x="60" y="110" width="790" height="80" as="geometry" />
        </mxCell>
      </root>
    </mxGraphModel>
  </diagram>
</mxfile>
